<svg width="511" height="363" viewBox="0 0 511 363" fill="none" xmlns="http://www.w3.org/2000/svg">
<path d="M54 273H172V296H54V273Z" fill="#00C2FF"/>
<path d="M71.613 213.533C59.349 213.533 48.399 210.978 38.763 205.868C29.273 200.612 21.827 193.458 16.425 184.406C11.023 175.354 8.322 165.061 8.322 153.527C8.322 141.847 11.023 131.554 16.425 122.648C21.827 113.596 29.273 106.515 38.763 101.405C48.399 96.295 59.349 93.74 71.613 93.74C83.001 93.74 93.002 96.076 101.616 100.748C110.376 105.274 117.019 111.99 121.545 120.896L100.521 133.16C97.017 127.612 92.71 123.524 87.6 120.896C82.636 118.268 77.234 116.954 71.394 116.954C64.678 116.954 58.619 118.414 53.217 121.334C47.815 124.254 43.581 128.488 40.515 134.036C37.449 139.438 35.916 145.935 35.916 153.527C35.916 161.119 37.449 167.689 40.515 173.237C43.581 178.639 47.815 182.8 53.217 185.72C58.619 188.64 64.678 190.1 71.394 190.1C77.234 190.1 82.636 188.786 87.6 186.158C92.71 183.53 97.017 179.442 100.521 173.894L121.545 186.158C117.019 194.918 110.376 201.707 101.616 206.525C93.002 211.197 83.001 213.533 71.613 213.533ZM181.823 213.533C169.851 213.533 159.193 210.978 149.849 205.868C140.505 200.612 133.132 193.458 127.73 184.406C122.328 175.354 119.627 165.061 119.627 153.527C119.627 141.847 122.328 131.554 127.73 122.648C133.132 113.596 140.505 106.515 149.849 101.405C159.193 96.295 169.851 93.74 181.823 93.74C193.941 93.74 204.672 96.295 214.016 101.405C223.506 106.515 230.879 113.523 236.135 122.429C241.537 131.335 244.238 141.701 244.238 153.527C244.238 165.061 241.537 175.354 236.135 184.406C230.879 193.458 223.506 200.612 214.016 205.868C204.672 210.978 193.941 213.533 181.823 213.533ZM181.823 190.1C188.539 190.1 194.525 188.64 199.781 185.72C205.037 182.8 209.125 178.566 212.045 173.018C215.111 167.47 216.644 160.973 216.644 153.527C216.644 145.935 215.111 139.438 212.045 134.036C209.125 128.488 205.037 124.254 199.781 121.334C194.525 118.414 188.612 116.954 182.042 116.954C175.326 116.954 169.34 118.414 164.084 121.334C158.974 124.254 154.886 128.488 151.82 134.036C148.754 139.438 147.221 145.935 147.221 153.527C147.221 160.973 148.754 167.47 151.82 173.018C154.886 178.566 158.974 182.8 164.084 185.72C169.34 188.64 175.253 190.1 181.823 190.1ZM305.674 213.533C294.432 213.533 284.285 211.051 275.233 206.087C266.327 200.977 259.319 193.969 254.209 185.063C249.099 176.157 246.544 165.645 246.544 153.527C246.544 141.409 249.099 130.897 254.209 121.991C259.319 113.085 266.327 106.15 275.233 101.186C284.285 96.222 294.432 93.74 305.674 93.74C315.456 93.74 324.216 95.93 331.954 100.31C339.692 104.544 345.824 111.041 350.35 119.801C354.876 128.561 357.139 139.803 357.139 153.527C357.139 167.105 354.949 178.347 350.569 187.253C346.189 196.013 340.13 202.583 332.392 206.963C324.654 211.343 315.748 213.533 305.674 213.533ZM308.959 190.1C315.529 190.1 321.369 188.64 326.479 185.72C331.735 182.8 335.896 178.566 338.962 173.018C342.174 167.47 343.78 160.973 343.78 153.527C343.78 145.935 342.174 139.438 338.962 134.036C335.896 128.488 331.735 124.254 326.479 121.334C321.369 118.414 315.529 116.954 308.959 116.954C302.389 116.954 296.476 118.414 291.22 121.334C286.11 124.254 281.949 128.488 278.737 134.036C275.671 139.438 274.138 145.935 274.138 153.527C274.138 160.973 275.671 167.47 278.737 173.018C281.949 178.566 286.11 182.8 291.22 185.72C296.476 188.64 302.389 190.1 308.959 190.1ZM344.437 212V184.406L345.532 153.308L343.342 122.21V49.502H370.498V212H344.437ZM447.263 213.533C434.269 213.533 422.881 210.978 413.099 205.868C403.463 200.612 395.944 193.458 390.542 184.406C385.286 175.354 382.658 165.061 382.658 153.527C382.658 141.847 385.213 131.554 390.323 122.648C395.579 113.596 402.733 106.515 411.785 101.405C420.983 96.295 431.422 93.74 443.102 93.74C454.49 93.74 464.637 96.222 473.543 101.186C482.449 106.15 489.457 113.158 494.567 122.21C499.677 131.262 502.232 141.92 502.232 154.184C502.232 155.352 502.159 156.666 502.013 158.126C502.013 159.586 501.94 160.973 501.794 162.287H404.339V144.11H487.34L476.609 149.804C476.755 143.088 475.368 137.175 472.448 132.065C469.528 126.955 465.513 122.94 460.403 120.02C455.439 117.1 449.672 115.64 443.102 115.64C436.386 115.64 430.473 117.1 425.363 120.02C420.399 122.94 416.457 127.028 413.537 132.284C410.763 137.394 409.376 143.453 409.376 150.461V154.841C409.376 161.849 410.982 168.054 414.194 173.456C417.406 178.858 421.932 183.019 427.772 185.939C433.612 188.859 440.328 190.319 447.92 190.319C454.49 190.319 460.403 189.297 465.659 187.253C470.915 185.209 475.587 181.997 479.675 177.617L494.348 194.48C489.092 200.612 482.449 205.357 474.419 208.715C466.535 211.927 457.483 213.533 447.263 213.533Z" fill="white"/>
<path d="M202.02 294.48L204.4 273.06L265.44 220H288.4L236.04 265.5L224.28 275.16L202.02 294.48ZM180.74 318L200.34 220H218.4L198.8 318H180.74ZM250.32 318L220.22 273.34L232.68 261.02L270.62 318H250.32ZM301.291 318.98C293.824 318.98 287.338 317.627 281.831 314.92C276.324 312.12 272.031 308.293 268.951 303.44C265.964 298.493 264.471 292.707 264.471 286.08C264.471 277.587 266.338 270.073 270.071 263.54C273.804 257.007 278.891 251.873 285.331 248.14C291.864 244.313 299.284 242.4 307.591 242.4C314.591 242.4 320.658 243.707 325.791 246.32C330.924 248.933 334.891 252.713 337.691 257.66C340.584 262.513 342.031 268.347 342.031 275.16C342.031 276.933 341.938 278.753 341.751 280.62C341.564 282.487 341.284 284.213 340.911 285.8H277.491L279.451 274.18H332.651L325.511 278.1C326.258 273.34 325.931 269.373 324.531 266.2C323.131 263.027 320.891 260.6 317.811 258.92C314.731 257.24 311.044 256.4 306.751 256.4C301.618 256.4 297.138 257.613 293.311 260.04C289.578 262.373 286.684 265.733 284.631 270.12C282.578 274.413 281.551 279.453 281.551 285.24C281.551 291.307 283.278 295.973 286.731 299.24C290.278 302.507 295.738 304.14 303.111 304.14C307.311 304.14 311.324 303.487 315.151 302.18C318.978 300.78 322.151 298.867 324.671 296.44L331.951 308.62C328.031 312.073 323.364 314.687 317.951 316.46C312.631 318.14 307.078 318.98 301.291 318.98ZM392.031 242.4C398.471 242.4 403.931 243.707 408.411 246.32C412.891 248.933 416.017 252.807 417.791 257.94C419.657 262.98 419.844 269.187 418.351 276.56L410.091 318H392.591L400.711 276.98C401.924 270.913 401.364 266.2 399.031 262.84C396.697 259.387 392.451 257.66 386.291 257.66C379.851 257.66 374.531 259.433 370.331 262.98C366.131 266.527 363.284 271.94 361.791 279.22L353.951 318H336.451L351.291 243.24H367.951L363.751 264.52L360.951 257.8C364.497 252.48 368.931 248.607 374.251 246.18C379.664 243.66 385.591 242.4 392.031 242.4ZM473.87 242.4C480.31 242.4 485.77 243.707 490.25 246.32C494.73 248.933 497.857 252.807 499.63 257.94C501.497 262.98 501.684 269.187 500.19 276.56L491.93 318H474.43L482.55 276.98C483.764 270.913 483.204 266.2 480.87 262.84C478.537 259.387 474.29 257.66 468.13 257.66C461.69 257.66 456.37 259.433 452.17 262.98C447.97 266.527 445.124 271.94 443.63 279.22L435.79 318H418.29L433.13 243.24H449.79L445.59 264.52L442.79 257.8C446.337 252.48 450.77 248.607 456.09 246.18C461.504 243.66 467.43 242.4 473.87 242.4Z" fill="white"/>
<path d="M53.232 266L47.912 235.872H55.864L60.12 261.8H56.032L70.48 235.872H77.984L82.352 261.8H78.264L92.6 235.872H100.832L84.2 266H75.576L71.488 243.768H74.064L61.744 266H53.232ZM98.7828 266L104.775 235.872H113.455L107.463 266H98.7828ZM110.599 231.672C109.068 231.672 107.836 231.243 106.903 230.384C105.969 229.488 105.503 228.405 105.503 227.136C105.503 225.643 106.025 224.411 107.071 223.44C108.153 222.432 109.553 221.928 111.271 221.928C112.801 221.928 114.033 222.357 114.967 223.216C115.937 224.037 116.423 225.064 116.423 226.296C116.423 227.901 115.881 229.208 114.799 230.216C113.753 231.187 112.353 231.672 110.599 231.672ZM127.836 266.448C125.67 266.448 123.822 266.019 122.292 265.16C120.761 264.264 119.66 262.995 118.988 261.352C118.353 259.672 118.26 257.693 118.708 255.416L123.916 229.208H132.652L127.444 255.36C127.22 256.629 127.35 257.637 127.836 258.384C128.321 259.131 129.217 259.504 130.524 259.504C131.121 259.504 131.718 259.411 132.316 259.224C132.95 259.037 133.529 258.776 134.052 258.44L135.34 264.656C134.257 265.328 133.062 265.795 131.756 266.056C130.449 266.317 129.142 266.448 127.836 266.448ZM116.468 243.264L117.812 236.544H138.7L137.356 243.264H116.468ZM163.428 235.424C165.966 235.424 168.132 235.965 169.924 237.048C171.716 238.093 172.985 239.643 173.732 241.696C174.516 243.749 174.609 246.288 174.012 249.312L170.652 266H161.916L165.164 249.872C165.612 247.669 165.425 245.971 164.604 244.776C163.82 243.581 162.364 242.984 160.236 242.984C158.033 242.984 156.185 243.619 154.692 244.888C153.236 246.157 152.228 248.099 151.668 250.712L148.644 266H139.908L148.196 224.448H156.932L152.956 244.384L151.22 241.808C152.676 239.605 154.468 238 156.596 236.992C158.761 235.947 161.038 235.424 163.428 235.424Z" fill="white"/>
<path d="M370.92 351.343C369.842 351.343 368.927 350.984 368.176 350.265C367.457 349.546 367.098 348.632 367.098 347.521C367.098 346.247 367.523 345.218 368.372 344.434C369.221 343.617 370.218 343.209 371.361 343.209C372.439 343.209 373.337 343.568 374.056 344.287C374.775 344.973 375.134 345.888 375.134 347.031C375.134 347.88 374.938 348.632 374.546 349.285C374.154 349.938 373.631 350.445 372.978 350.804C372.357 351.163 371.671 351.343 370.92 351.343ZM393.036 351.343C390.456 351.343 388.185 350.869 386.225 349.922C384.298 348.942 382.812 347.603 381.766 345.904C380.721 344.173 380.198 342.147 380.198 339.828C380.198 336.888 380.868 334.275 382.207 331.988C383.547 329.669 385.392 327.856 387.744 326.549C390.096 325.21 392.808 324.54 395.878 324.54C398.524 324.54 400.795 325.063 402.689 326.108C404.617 327.121 406.103 328.64 407.148 330.665L401.905 333.36C401.317 332.119 400.468 331.204 399.357 330.616C398.279 330.028 396.956 329.734 395.388 329.734C393.69 329.734 392.154 330.159 390.782 331.008C389.41 331.825 388.332 332.968 387.548 334.438C386.764 335.908 386.372 337.607 386.372 339.534C386.372 341.559 386.977 343.16 388.185 344.336C389.394 345.512 391.109 346.1 393.33 346.1C394.768 346.1 396.107 345.806 397.348 345.218C398.59 344.63 399.635 343.715 400.484 342.474L404.992 345.512C403.784 347.341 402.118 348.779 399.994 349.824C397.871 350.837 395.552 351.343 393.036 351.343ZM420.978 351.343C418.43 351.343 416.192 350.869 414.265 349.922C412.37 348.942 410.9 347.603 409.855 345.904C408.81 344.173 408.287 342.147 408.287 339.828C408.287 336.888 408.957 334.275 410.296 331.988C411.635 329.669 413.465 327.856 415.784 326.549C418.136 325.21 420.815 324.54 423.82 324.54C426.401 324.54 428.638 325.014 430.533 325.961C432.46 326.876 433.947 328.199 434.992 329.93C436.037 331.629 436.56 333.654 436.56 336.006C436.56 338.913 435.89 341.527 434.551 343.846C433.212 346.165 431.366 347.995 429.014 349.334C426.695 350.673 424.016 351.343 420.978 351.343ZM421.37 346.1C423.134 346.1 424.686 345.692 426.025 344.875C427.364 344.026 428.426 342.866 429.21 341.396C429.994 339.926 430.386 338.227 430.386 336.3C430.386 334.275 429.782 332.674 428.573 331.498C427.364 330.322 425.666 329.734 423.477 329.734C421.746 329.734 420.194 330.159 418.822 331.008C417.483 331.825 416.421 332.968 415.637 334.438C414.853 335.908 414.461 337.607 414.461 339.534C414.461 341.592 415.065 343.209 416.274 344.385C417.483 345.528 419.181 346.1 421.37 346.1ZM477.158 324.54C479.445 324.54 481.356 324.997 482.891 325.912C484.426 326.827 485.504 328.182 486.125 329.979C486.746 331.743 486.795 333.915 486.272 336.496L483.381 351H477.256L480.147 336.643C480.572 334.487 480.392 332.821 479.608 331.645C478.824 330.469 477.403 329.881 475.345 329.881C473.222 329.881 471.474 330.502 470.102 331.743C468.763 332.952 467.832 334.83 467.309 337.378L464.565 351H458.44L461.331 336.643C461.756 334.487 461.576 332.821 460.792 331.645C460.008 330.469 458.587 329.881 456.529 329.881C454.406 329.881 452.658 330.502 451.286 331.743C449.947 332.952 449.016 334.846 448.493 337.427L445.749 351H439.624L444.818 324.834H450.649L449.228 332.037L448.199 329.93C449.408 328.068 450.91 326.712 452.707 325.863C454.536 324.981 456.529 324.54 458.685 324.54C460.384 324.54 461.886 324.834 463.193 325.422C464.5 325.977 465.545 326.843 466.329 328.019C467.146 329.162 467.619 330.583 467.75 332.282L464.81 331.645C466.149 329.293 467.864 327.529 469.955 326.353C472.078 325.144 474.479 324.54 477.158 324.54Z" fill="white"/>
</svg>
